<svg xmlns="http://www.w3.org/2000/svg" xmlns:xlink="http://www.w3.org/1999/xlink" width="1366" zoomAndPan="magnify" viewBox="0 0 1024.5 576" height="768" preserveAspectRatio="xMidYMid meet" version="1.0"><defs><clipPath id="007a49b5c0"><path d="M 318.085938 212.242188 L 548.222656 212.242188 L 548.222656 442.378906 L 318.085938 442.378906 Z M 318.085938 212.242188 " clip-rule="nonzero"/></clipPath><clipPath id="151bce9971"><path d="M 0 96 L 1024 96 L 1024 575.859375 L 0 575.859375 Z M 0 96 " clip-rule="nonzero"/></clipPath></defs><g clip-path="url(#007a49b5c0)"><path fill="#000000" d="M 529.96875 286.730469 C 529.675781 285.546875 529.25 282.480469 529.042969 280.980469 C 527.71875 271.484375 525.71875 257.128906 514.117188 245.640625 C 502.253906 233.886719 487.664062 232.054688 478.007812 230.84375 C 477.082031 230.726562 474.324219 230.382812 472.929688 230.121094 C 471.753906 229.332031 469.542969 227.644531 468.800781 227.078125 C 461.066406 221.171875 449.378906 212.25 432.675781 212.316406 C 426.648438 212.339844 420.863281 213.546875 414.996094 216.007812 C 407.601562 219.109375 401.621094 223.707031 397.253906 227.066406 C 396.058594 227.984375 393.605469 229.871094 392.570312 230.507812 C 391.390625 230.800781 388.324219 231.226562 386.824219 231.4375 C 381.371094 232.195312 373.90625 233.238281 366.511719 236.335938 C 360.640625 238.796875 355.726562 242.074219 351.484375 246.359375 C 339.730469 258.222656 337.898438 272.816406 336.6875 282.472656 C 336.570312 283.398438 336.226562 286.15625 335.964844 287.546875 C 335.171875 288.722656 333.488281 290.933594 332.921875 291.675781 C 327.015625 299.410156 318.09375 311.097656 318.160156 327.800781 C 318.222656 344.125 327.058594 355.617188 332.90625 363.222656 C 333.828125 364.417969 335.714844 366.871094 336.351562 367.90625 C 336.644531 369.085938 337.070312 372.152344 337.28125 373.652344 C 338.601562 383.152344 340.605469 397.503906 352.203125 408.996094 C 364.066406 420.75 378.65625 422.578125 388.316406 423.789062 C 389.242188 423.90625 392 424.253906 393.390625 424.515625 C 394.566406 425.304688 396.777344 426.988281 397.519531 427.558594 C 405.253906 433.460938 416.941406 442.382812 433.644531 442.316406 C 439.671875 442.292969 445.457031 441.085938 451.324219 438.625 C 458.71875 435.527344 464.695312 430.929688 469.0625 427.570312 C 470.261719 426.652344 472.714844 424.765625 473.75 424.125 C 474.929688 423.835938 478 423.40625 479.5 423.199219 C 484.949219 422.4375 492.414062 421.398438 499.808594 418.296875 L 499.8125 418.296875 C 505.679688 415.835938 510.59375 412.558594 514.835938 408.277344 C 526.589844 396.410156 528.421875 381.820312 529.632812 372.164062 C 529.75 371.234375 530.09375 368.480469 530.355469 367.085938 C 531.148438 365.910156 532.832031 363.699219 533.402344 362.957031 C 539.304688 355.222656 548.226562 343.535156 548.160156 326.835938 C 548.097656 310.507812 539.261719 299.015625 533.414062 291.410156 C 532.492188 290.214844 530.605469 287.765625 529.96875 286.730469 Z M 449.65625 434.648438 C 444.320312 436.882812 439.078125 437.984375 433.625 438.003906 C 418.394531 438.0625 407.40625 429.675781 400.136719 424.128906 C 398.605469 422.957031 396.445312 421.328125 395.363281 420.652344 C 395.15625 420.523438 394.929688 420.429688 394.6875 420.375 C 393.441406 420.097656 390.757812 419.75 388.847656 419.507812 C 379.773438 418.371094 366.058594 416.652344 355.238281 405.929688 C 344.675781 395.464844 342.796875 381.980469 341.550781 373.058594 C 341.175781 370.34375 340.777344 367.597656 340.421875 366.4375 C 340.378906 366.296875 340.324219 366.160156 340.253906 366.03125 C 339.671875 364.96875 337.996094 362.757812 336.324219 360.585938 C 330.832031 353.445312 322.53125 342.652344 322.472656 327.78125 C 322.414062 312.550781 330.800781 301.5625 336.351562 294.292969 C 337.519531 292.761719 339.148438 290.605469 339.824219 289.523438 C 339.957031 289.3125 340.046875 289.085938 340.101562 288.847656 C 340.378906 287.601562 340.726562 284.917969 340.96875 283.007812 C 342.105469 273.929688 343.828125 260.21875 354.546875 249.394531 C 358.382812 245.523438 362.84375 242.554688 368.179688 240.316406 C 375.054688 237.433594 382.199219 236.4375 387.417969 235.710938 C 390.132812 235.332031 392.878906 234.933594 394.039062 234.578125 C 394.179688 234.539062 394.316406 234.480469 394.445312 234.410156 C 395.507812 233.832031 397.71875 232.152344 399.890625 230.480469 C 404.066406 227.269531 409.785156 222.871094 416.664062 219.988281 C 422 217.75 427.242188 216.652344 432.695312 216.628906 C 447.925781 216.570312 458.914062 224.957031 466.183594 230.507812 C 467.714844 231.675781 469.875 233.304688 470.957031 233.980469 C 471.164062 234.113281 471.390625 234.207031 471.632812 234.257812 C 472.878906 234.535156 475.5625 234.886719 477.472656 235.125 C 486.546875 236.261719 500.261719 237.984375 511.082031 248.703125 C 521.644531 259.167969 523.527344 272.660156 524.769531 281.585938 C 525.148438 284.296875 525.546875 287.039062 525.898438 288.199219 C 525.941406 288.335938 525.996094 288.472656 526.066406 288.601562 C 526.648438 289.664062 528.328125 291.875 529.996094 294.046875 C 535.488281 301.191406 543.789062 311.980469 543.847656 326.851562 C 543.90625 342.085938 535.519531 353.070312 529.972656 360.339844 C 528.804688 361.871094 527.171875 364.027344 526.496094 365.113281 C 526.363281 365.320312 526.273438 365.550781 526.21875 365.789062 C 525.941406 367.035156 525.59375 369.71875 525.351562 371.628906 C 524.214844 380.703125 522.492188 394.417969 511.773438 405.238281 C 507.9375 409.113281 503.476562 412.082031 498.144531 414.320312 L 498.140625 414.320312 C 491.261719 417.203125 484.117188 418.199219 478.902344 418.925781 C 476.1875 419.304688 473.441406 419.703125 472.28125 420.054688 C 472.140625 420.097656 472.003906 420.15625 471.875 420.226562 C 470.808594 420.804688 468.601562 422.484375 466.433594 424.152344 C 462.253906 427.367188 456.53125 431.765625 449.65625 434.648438 Z M 449.65625 434.648438 " fill-opacity="1" fill-rule="nonzero"/></g><g clip-path="url(#151bce9971)"><path fill="#473144" d="M 106.511719 106.667969 C 134.128906 106.90625 157.101562 127.816406 182.496094 139.164062 C 272.644531 179.320312 370.050781 95.402344 467.898438 96.234375 C 626.210938 119.367188 649.582031 177.058594 829.71875 117.582031 C 933.472656 79.609375 1108.136719 86.75 1117.777344 232.089844 C 1117.578125 305.296875 1047.863281 362.429688 1045.761719 435.636719 C 1043.460938 515.585938 1132.933594 600.179688 1082.304688 677.710938 C 993.746094 767.023438 861.738281 684.414062 755.125 682.75 C 628.074219 676.480469 496.027344 751.113281 378.464844 700.128906 C 195.273438 587.878906 231.417969 647.953125 55.128906 685.289062 C -11.648438 687.273438 -60.886719 646.960938 -71.996094 552.449219 C -78.265625 499.082031 -22.042969 437.183594 -13.511719 372.628906 C -8.074219 247.644531 -89.8125 107.898438 106.511719 106.667969 Z M 106.511719 106.667969 " fill-opacity="1" fill-rule="nonzero"/></g></svg>